<?xml version="1.0" standalone="no"?><!DOCTYPE svg PUBLIC "-//W3C//DTD SVG 1.1//EN" "http://www.w3.org/Graphics/SVG/1.1/DTD/svg11.dtd"><svg t="1535877098096" class="icon" style="" viewBox="0 0 1024 1024" version="1.1" xmlns="http://www.w3.org/2000/svg" p-id="2515" xmlns:xlink="http://www.w3.org/1999/xlink" width="200" height="200"><defs><style type="text/css"></style></defs><path d="M951.813566 793.776212c2.452537 8.065731 4.206548 18.234837 5.608997 30.155555 1.404648 11.571355 2.105373 23.845833 2.105373 35.76675 0 11.921917-0.700725 23.494471-2.807097 34.014738-1.750813 10.518269-4.55791 18.585199-8.064732 23.843834-2.454736 3.507822-9.117818 7.013445-20.689373 10.520467-11.571554 3.506822-25.948007 6.661084-42.779396 9.467181-17.18255 3.155461-36.117912 5.611196-56.805286 8.415095-20.687374 2.803899-41.376747 4.910471-62.415482 6.664282-21.039735 1.751812-41.028383 3.154461-60.664669 4.55791-19.285924 1.051087-36.468474 1.751812-51.19529 1.751812-14.727815 0-31.558004-0.700725-50.844927-1.751812-18.93756-1.404648-38.922011-2.806097-59.610384-4.55791-20.690372-1.753811-41.028383-3.859383-61.015032-5.612195-19.987648-2.103174-38.572648-4.558909-55.402837-7.013645-16.831188-2.806097-30.858478-5.261832-42.429833-8.064732-11.571554-2.806097-18.584-5.260833-21.74046-7.71437-4.55791-4.208746-8.414095-16.481825-11.571554-37.170398-2.806097-20.689373-2.103174-47.338305 2.805098-79.599032 2.806097-18.935562 10.520467-32.961652 22.441185-42.427834 11.925115-9.468181 26.300568-17.18255 42.781394-23.142909 16.478627-5.962557 33.312014-10.87083 50.843928-15.429739 17.532913-4.559908 32.962651-10.871829 46.287017-19.988648 10.519468-7.012446 18.584-13.674729 24.194196-19.285924 5.610996-5.962557 9.467181-11.922916 12.273279-17.532913 2.805098-5.961358 3.858184-12.27128 3.858184-18.585199 0-6.311921-0.351362-13.674729-1.054285-22.091822-1.403648-11.570555-5.260833-21.038736-12.272279-28.05238-7.013645-6.661084-14.727815-13.323367-23.142909-19.986449-4.207547-3.507822-7.71437-8.415095-10.87083-15.078377-3.15646-6.311921-5.960359-12.973004-8.415095-19.286923-2.454536-7.012446-4.558909-15.076178-7.013645-23.842635-3.507822-1.403648-7.013645-3.15646-10.520467-5.260833-3.155461-2.453537-5.960359-5.961358-9.115819-10.519468-3.505823-4.55791-6.31292-11.221192-9.116819-19.285924-3.155461-8.065731-4.208547-16.130464-3.506822-23.494471 0.700725-7.364007 2.103174-13.324366 4.560108-18.233638 2.452537-5.960359 5.608997-11.221192 9.466182-15.780101-0.349363-18.934363 0.351362-38.221286 2.806097-57.50721 2.453537-16.480826 5.960359-33.662377 10.87083-51.896015 4.909272-17.884474 12.623641-34.715663 23.493471-50.144202 9.467181-14.02609 19.987648-25.597645 31.909565-34.364101 11.571554-8.767456 23.843834-15.780101 36.115913-20.690372 12.275477-4.908272 24.895921-8.415095 37.172397-10.168905 12.27128-1.751812 24.192997-2.803899 35.414189-2.803899 30.156554 0 56.805286 6.311921 80.651318 18.584 23.494471 12.273279 41.026384 25.597645 52.248575 39.623935 12.973004 16.130464 22.442184 33.662377 28.754105 53.651025 6.311921 19.636287 10.517269 38.222485 13.673729 55.052474 3.155461 19.987648 4.209546 39.974098 3.508821 59.960747 2.803899 2.454736 5.611196 5.611196 8.064732 9.46838 1.753011 3.506822 3.505823 8.065731 4.908272 13.675728 1.402449 5.609996 1.756009 12.622642 0.351362 20.688373-1.402449 10.520467-3.506822 19.284725-7.014644 25.597645-3.506822 6.311721-7.013645 11.571554-10.518269 15.079376-4.208746 4.207547-8.765457 6.661084-14.025091 8.064732-2.455735 8.765457-4.561108 16.831188-7.014644 23.843834-2.454736 6.31292-5.260833 12.973004-8.766456 19.285924-3.506822 6.311921-7.365007 11.221192-11.221192 14.02609-4.55791 4.208547-9.115819 7.71437-12.973004 10.519468-3.857185 3.15646-7.012645 5.961358-10.169105 9.116819-3.15646 3.15646-5.609996 7.013645-7.364007 10.87083-2.104373 4.207547-3.858184 9.115819-4.908272 15.078377-1.052087 7.71437-1.753811 15.42754-1.402449 23.493272 0.350362 8.064732 2.103174 15.780101 5.609996 23.143109 3.506822 7.71437 9.11482 15.079376 17.181551 22.093021 8.064732 7.012645 18.936561 13.324366 33.313014 18.584 12.273279 5.260833 25.948007 9.817544 41.026384 13.674729 15.078377 3.858184 29.45483 8.417093 43.478921 13.675728 14.02609 5.259634 26.301568 12.273279 37.172397 20.33901C939.188726 770.28294 946.902096 780.803407 951.813566 793.776212M480.182532 631.072325c-1.402449 6.663282-2.805098 11.573553-4.558909 15.079376-1.753811 3.507822-5.960359 7.365007-12.272279 11.571554-15.428739 9.467181-31.909565 17.181551-49.443477 22.792747-17.882276 5.960359-34.714464 12.272279-50.844927 19.285924-16.128265 7.013645-30.155555 16.479827-42.427834 28.05238-11.922916 11.570555-19.637286 27.702018-22.441185 49.092116-1.052087 6.663282-1.754011 12.974004-2.105373 18.935562-0.349363 6.311921-0.700725 11.921917-1.40145 17.18255-0.701724 1.051087-1.402449 2.104373-1.754011 3.154261-0.349363 1.054285-1.051087 1.75501-1.754011 3.15646-23.143109-1.752812-46.285019-3.857185-69.77949-6.310721-23.494471-2.453537-45.234931-5.260833-64.871217-8.064732-19.637286-3.15646-36.468474-5.963557-50.144202-8.767456-13.675728-2.8029-22.089823-5.95936-25.597645-8.765457-5.259634-4.207547-9.116819-16.480826-11.922916-37.169199-2.803899-20.689373-1.751812-47.338105 3.15646-80.300956 2.806097-18.233638 10.520467-32.260927 22.443383-42.077471 12.272279-9.46838 26.29837-17.532913 43.128559-22.793746 16.480826-5.610996 33.314013-10.868631 50.844927-15.428739 17.533912-4.55791 32.962651-11.221192 46.287017-19.284725 10.521466-7.015643 18.585199-13.675728 24.546557-19.287923 5.608997-5.960359 9.466182-11.920918 11.921917-18.232638 2.454736-6.31292 3.506822-12.62464 3.506822-18.935562 0-6.31292-0.350362-13.676727-1.052087-21.039735-1.052087-11.921917-5.259634-21.039735-11.921917-28.05238-6.662283-6.663282-14.376453-13.675728-22.442184-20.689373-4.558909-3.15646-8.766456-7.71437-11.922916-14.02609-3.15646-6.311921-5.960359-12.973004-8.415095-19.284725-2.454736-7.013645-4.558909-15.079376-7.013645-23.843834-3.506822-1.404648-7.013645-3.15646-10.519268-5.261832-3.155461-2.454736-5.962557-5.960359-9.117818-10.518269-3.15646-4.558909-6.311921-11.222191-9.116819-19.285924-2.806097-8.064732-4.208547-16.130464-3.505823-23.143109 0.699726-7.363008 2.103174-13.675728 4.55791-18.936561 2.453537-6.310721 5.609996-11.920918 9.468181-15.778102-0.702724-18.935562 0.349363-38.221286 2.805098-57.508209 2.454736-16.129464 6.311921-32.960653 11.571554-51.19529 5.258635-18.234837 13.325365-34.713464 23.842635-49.442478 9.468181-14.02609 19.988648-25.596645 31.910565-34.364101 11.570355-8.765457 23.492272-15.777903 35.76675-20.687374 11.920918-4.910271 24.194196-8.416094 36.817838-10.170105 12.272279-1.752812 24.546557-2.803899 36.118112-2.803899 29.45483 0 56.104761 6.311921 79.599232 18.584 23.494471 12.272279 41.377746 25.597645 53.299663 39.973098 7.71437 9.818543 12.621443 19.286923 14.376453 27.702018 2.102175 8.416094 4.909272 18.584 8.414095 29.806191-11.219993 6.311921-23.14191 16.129464-35.765551 28.753105-12.62464 12.623641-23.494471 25.597645-33.312014 38.572648-11.571554 16.478627-20.688373 34.714464-26.649731 54.701113-5.960359 19.987648-10.168905 38.572648-13.325365 55.755398-2.805098 20.687374-4.206548 41.025385-4.206548 61.714757-4.558909 5.259634-8.416094 11.221192-10.520267 17.531913-2.455735 5.962557-3.857185 12.976202-4.558909 20.690372-0.700725 8.063733 0.701724 16.480826 3.505823 25.948007 3.15646 10.168905 6.311921 17.883275 9.46838 22.791547 3.506822 5.260833 6.663282 9.46838 9.819742 12.274278 3.504624 3.505823 7.013645 5.961358 10.518269 7.013645 2.455735 9.467181 4.558909 18.232638 7.013645 26.648732 2.453537 7.012645 5.259634 14.375453 8.415095 21.74046 3.507822 7.364007 7.365007 12.62464 11.922916 16.481825 4.208547 3.506822 7.365007 6.310721 9.46838 8.764458 2.454536 2.455735 4.208547 4.559908 5.960359 6.664282 1.403648 2.103174 2.454536 4.908272 2.806097 8.414095C478.079158 620.554056 478.778884 625.111966 480.182532 631.072325" p-id="2516" fill="#e6e6e6"></path></svg>
