<?xml version="1.0" standalone="no"?><!DOCTYPE svg PUBLIC "-//W3C//DTD SVG 1.1//EN" "http://www.w3.org/Graphics/SVG/1.1/DTD/svg11.dtd"><svg t="1521255203408" class="icon" style="" viewBox="0 0 1024 1024" version="1.1" xmlns="http://www.w3.org/2000/svg" p-id="1473" xmlns:xlink="http://www.w3.org/1999/xlink" width="200" height="200"><defs><style type="text/css"></style></defs><path d="M512 192a192 192 0 1 1-135.76 56.24A190.74 190.74 0 0 1 512 192m0-128c-176.73 0-320 143.27-320 320s143.27 320 320 320 320-143.27 320-320S688.73 64 512 64z" p-id="1474"></path><path d="M384 896l-64-160H128l192-160 160 96-96 224zM640 896l64-160h192L704 576l-160 96 96 224z" p-id="1475"></path></svg>