<?xml version="1.0" standalone="no"?><!DOCTYPE svg PUBLIC "-//W3C//DTD SVG 1.1//EN" "http://www.w3.org/Graphics/SVG/1.1/DTD/svg11.dtd"><svg t="1535877008494" class="icon" style="" viewBox="0 0 1024 1024" version="1.1" xmlns="http://www.w3.org/2000/svg" p-id="2008" xmlns:xlink="http://www.w3.org/1999/xlink" width="200" height="200"><defs><style type="text/css"></style></defs><path d="M1024 512c0-282.763636-229.236364-512-512-512C229.236364 0 0 229.236364 0 512c0 282.763636 229.236364 512 512 512C794.763636 1024 1024 794.763636 1024 512zM523.636364 232.727273c32.116364 0 58.181818 26.065455 58.181818 58.181818 0 32.116364-26.065455 58.181818-58.181818 58.181818C491.52 349.090909 465.454545 323.025455 465.454545 290.909091 465.454545 258.792727 491.52 232.727273 523.636364 232.727273zM395.636364 768 465.454545 768l0-325.818182L395.636364 442.181818l0-46.545455 186.181818 0 0 372.363636L651.636364 768l0 46.545455L395.636364 814.545455 395.636364 768z" p-id="2009" fill="#e6e6e6"></path></svg>
