<?xml version="1.0" standalone="no"?><!DOCTYPE svg PUBLIC "-//W3C//DTD SVG 1.1//EN" "http://www.w3.org/Graphics/SVG/1.1/DTD/svg11.dtd"><svg t="1537621250335" class="icon" style="" viewBox="0 0 1024 1024" version="1.1" xmlns="http://www.w3.org/2000/svg" p-id="2318" xmlns:xlink="http://www.w3.org/1999/xlink" width="200" height="200"><defs><style type="text/css"></style></defs><path d="M881.584843 7.654896 142.421977 7.654896C66.196947 7.654896 3.827448 70.024394 3.827448 146.249425l0 739.161161c0 76.221621 62.369499 138.58771 138.594529 138.58771l739.161161 0c76.221621 0 138.58771-62.366089 138.58771-138.58771L1020.170847 146.246015C1020.172552 70.020985 957.806463 7.654896 881.584843 7.654896L881.584843 7.654896zM973.977217 885.408881c0 24.482027-9.700748 47.579695-27.257566 65.139923-17.556819 17.553409-40.654486 27.257566-65.139923 27.257566L142.421977 977.80637c-24.490552 0-47.586514-9.700748-65.139923-27.257566-17.556819-17.556819-27.257566-40.654486-27.257566-65.139923L50.024488 146.246015c0-24.485437 9.697338-47.586514 27.257566-65.139923 17.553409-17.556819 40.651076-27.257566 65.139923-27.257566l739.161161 0c24.482027 0 47.579695 9.697338 65.139923 27.257566 17.553409 17.553409 27.257566 40.651076 27.257566 65.139923l0 739.161161L973.977217 885.407176z" p-id="2319"></path><path d="M358.090565 242.211811l444.626689 0c18.84741 0 34.204938 15.355823 34.204938 34.201528 0 18.84741-15.268874 34.204938-34.204938 34.204938L358.090565 310.618277c-18.84741 0-34.196414-15.355823-34.196414-34.204938C323.892446 257.564224 339.24145 242.211811 358.090565 242.211811L358.090565 242.211811z" p-id="2320"></path><path d="M358.090565 720.954784l444.626689 0c18.84741 0 34.204938 15.355823 34.204938 34.285067 0 18.930949-15.268874 34.199824-34.204938 34.199824L358.090565 789.439675c-18.84741 0-34.196414-15.268874-34.196414-34.199824C323.892446 736.312312 339.24145 720.954784 358.090565 720.954784L358.090565 720.954784z" p-id="2321"></path><path d="M358.090565 481.625919l444.626689 0c18.84741 0 34.204938 15.268874 34.204938 34.204938 0 18.92413-15.268874 34.198119-34.204938 34.198119L358.090565 550.028976c-18.84741 0-34.196414-15.268874-34.196414-34.198119C323.892446 496.896499 339.24145 481.625919 358.090565 481.625919L358.090565 481.625919z" p-id="2322"></path><path d="M221.282746 242.211811c18.84741 0 34.204938 15.355823 34.204938 34.201528 0 18.84741-15.268874 34.204938-34.204938 34.204938-18.927539 0-34.201528-15.355823-34.201528-34.204938C187.079513 257.564224 202.435336 242.211811 221.282746 242.211811L221.282746 242.211811z" p-id="2323"></path><path d="M221.282746 720.954784c18.84741 0 34.204938 15.355823 34.204938 34.285067 0 18.930949-15.268874 34.199824-34.204938 34.199824-18.927539 0-34.201528-15.268874-34.201528-34.199824C187.079513 736.312312 202.435336 720.954784 221.282746 720.954784L221.282746 720.954784z" p-id="2324"></path><path d="M221.282746 481.625919c18.84741 0 34.204938 15.268874 34.204938 34.204938 0 18.92413-15.355823 34.198119-34.204938 34.198119s-34.201528-15.349004-34.201528-34.198119C187.079513 496.976628 202.435336 481.625919 221.282746 481.625919L221.282746 481.625919z" p-id="2325"></path></svg>