<?xml version="1.0" standalone="no"?><!DOCTYPE svg PUBLIC "-//W3C//DTD SVG 1.1//EN" "http://www.w3.org/Graphics/SVG/1.1/DTD/svg11.dtd"><svg t="1535877119248" class="icon" style="" viewBox="0 0 1024 1024" version="1.1" xmlns="http://www.w3.org/2000/svg" p-id="2928" xmlns:xlink="http://www.w3.org/1999/xlink" width="200" height="200"><defs><style type="text/css"></style></defs><path d="M690.67561984 185.49293511c-132.26543331 6.66205411-243.59535616 81.83089038-227.4148955 213.14282155 21.88347733 84.68447459 72.03293867 105.30584235 99.9114331 123.7019136 8.56352085 20.93551161-29.49903246 94.20149646-29.49903246 94.20149646s59.94741305 13.31995648 138.92195214-63.75449941c33.30196594 5.7085531 241.68835299 0.95350101 249.30390813-178.88735574-0.35427669-12.20730766 2.85496775-171.27733589-231.22336541-188.40437646zM566.02712519 417.66980153c-26.27318101 0-47.57542343-21.30085888-47.57542229-47.57542343 0-26.27318101 21.30085888-47.57542343 47.57542229-47.57542343s47.57542343 21.30085888 47.57542343 47.57542343c-0.00138354 26.27456455-21.30224242 47.57542343-47.57542343 47.57542343z m125.60199566 0c-26.27318101 0-47.57542343-21.30085888-47.57542229-47.57542343 0-26.27318101 21.30085888-47.57542343 47.57542229-47.57542343s47.57542343 21.30085888 47.57542344 47.57542343-21.30224242 47.57542343-47.57542344 47.57542343z m123.7019136 0c-26.27318101 0-47.57542343-21.30085888-47.57542343-47.57542343 0-26.27318101 21.30085888-47.57542343 47.57542343-47.57542343 26.27318101 0 47.57542343 21.30085888 47.5754223 47.57542343-0.00138354 26.27456455-21.30224242 47.57542343-47.5754223 47.57542343z" fill="#e6e6e6" p-id="2929"></path><path d="M335.89426631 296.0340389c-5.84555747 34.1641307-47.11873877 36.94436807-62.93800277 123.53584583 1.90146674 121.80044573 98.95793209 224.56684771 198.86936519 257.86881252 107.52145294 28.54553031 127.3609216-48.29919801 171.79075925-46.2219776 45.39441038 2.12980963 127.94354005 105.21588963 127.08691172 129.96402289-7.99335765 53.92886898-90.95350386 123.11375872-198.96070258 97.99335936C386.19180487 833.48353934 127.37640903 567.05120483 105.48739755 374.8452773 90.26043904 238.77691051 154.01493731 179.77746205 210.09714176 163.34651847c41.51674653 0.25186873 128.51370325 95.41793792 125.79712455 132.68752043z" fill="#e6e6e6" p-id="2930"></path></svg>
