<?xml version="1.0" standalone="no"?><!DOCTYPE svg PUBLIC "-//W3C//DTD SVG 1.1//EN" "http://www.w3.org/Graphics/SVG/1.1/DTD/svg11.dtd"><svg t="1521255735470" class="icon" style="" viewBox="0 0 1024 1024" version="1.1" xmlns="http://www.w3.org/2000/svg" p-id="1967" xmlns:xlink="http://www.w3.org/1999/xlink" width="200" height="200"><defs><style type="text/css"></style></defs><path d="M128 128h768v128H128zM586.94 768H128v128h640a192.07 192.07 0 0 1-181.06-128zM768 512a191.27 191.27 0 0 1 128 48.91V448H128v128h496.91A191.51 191.51 0 0 1 768 512z" p-id="1968" fill="#e6e6e6"></path><path d="M918.81 679.31l-34.85-7a11.48 11.48 0 0 1-8.52-7.37q-1.73-4.77-3.87-9.33a11.48 11.48 0 0 1 0.81-11.24l19.72-29.57a11.43 11.43 0 0 0-1.43-14.42l-19.07-19.05a11.43 11.43 0 0 0-14.42-1.43l-29.58 19.71a11.48 11.48 0 0 1-11.24 0.81q-4.56-2.13-9.33-3.87a11.48 11.48 0 0 1-7.37-8.52l-7-34.85a11.43 11.43 0 0 0-11.17-9.18h-27a11.43 11.43 0 0 0-11.21 9.19l-7 34.85a11.48 11.48 0 0 1-7.37 8.52q-4.77 1.73-9.33 3.87a11.48 11.48 0 0 1-11.24-0.81l-29.52-19.72a11.43 11.43 0 0 0-14.42 1.43l-19.07 19.07a11.43 11.43 0 0 0-1.43 14.42l19.72 29.57a11.48 11.48 0 0 1 0.81 11.24q-2.13 4.56-3.87 9.33a11.48 11.48 0 0 1-8.52 7.37l-34.85 7a11.43 11.43 0 0 0-9.19 11.18v27a11.43 11.43 0 0 0 9.19 11.21l34.85 7a11.48 11.48 0 0 1 8.52 7.37q1.73 4.77 3.87 9.33a11.48 11.48 0 0 1-0.81 11.24l-19.72 29.52a11.43 11.43 0 0 0 1.43 14.42l19.07 19.07a11.43 11.43 0 0 0 14.42 1.43l29.57-19.72a11.48 11.48 0 0 1 11.24-0.81q4.56 2.13 9.33 3.87a11.48 11.48 0 0 1 7.37 8.52l7 34.85a11.43 11.43 0 0 0 11.18 9.19h27a11.43 11.43 0 0 0 11.21-9.19l7-34.85a11.48 11.48 0 0 1 7.37-8.52q4.77-1.73 9.33-3.87a11.48 11.48 0 0 1 11.24 0.81l29.57 19.72a11.43 11.43 0 0 0 14.42-1.43l19.07-19.07a11.43 11.43 0 0 0 1.43-14.42l-19.76-29.58a11.48 11.48 0 0 1-0.81-11.24q2.13-4.56 3.87-9.33a11.48 11.48 0 0 1 8.52-7.37l34.85-7a11.43 11.43 0 0 0 9.18-11.17v-27a11.43 11.43 0 0 0-9.19-11.18z m-102.32 73.18A68.57 68.57 0 1 1 836.57 704a68.12 68.12 0 0 1-20.08 48.49z" p-id="1969" fill="#e6e6e6"></path></svg>