<?xml version="1.0" standalone="no"?><!DOCTYPE svg PUBLIC "-//W3C//DTD SVG 1.1//EN" "http://www.w3.org/Graphics/SVG/1.1/DTD/svg11.dtd"><svg t="1535877153186" class="icon" style="" viewBox="0 0 1024 1024" version="1.1" xmlns="http://www.w3.org/2000/svg" p-id="3696" xmlns:xlink="http://www.w3.org/1999/xlink" width="200" height="200"><defs><style type="text/css"></style></defs><path d="M96.83253931 795.62165021h830.33492138v67.81068515H96.83253931zM98.21643093 172.8704603v606.14449152h823.80295282v-606.14449152H98.21643093z m624.14476971 181.01024427c5.00553614-1.87655737 10.28923392-2.44948765 15.84970979-1.72017664 5.37503517 1.1486299 8.98837504 3.02657081 10.84417366 5.6310545 5.37503517 7.71934663 10.10240853 12.67091115 14.18073657 14.8602277a30.25048462 30.25048462 0 0 0 12.79130965 2.81621846c6.48768398 0 11.76999709-1.09604181 15.8497098-3.28535837 3.70606194-1.87655737 5.56186055-4.22363705 5.56186055-7.0398555-0.18820893-9.48796075-12.60863602-19.44921202-37.26128015-29.87821853-25.58123463-11.05314133-38.28120803-23.15112107-38.09438264-36.29255566 0-8.86244125 5.84002219-16.63299243 17.51868302-23.30888533 10.9341275-5.63105451 22.80099726-8.4472741 35.59230692-8.4472741 12.41765888 0 23.16911161 1.72156131 32.255744 5.16191573 8.34071438 3.23415495 16.40465067 8.81400491 24.19042417 16.73816861 2.59341312 2.92139463 3.79739819 5.68502613 3.61472455 8.29089337-0.74314979 3.02657081-3.43205091 5.37226695-8.06393628 7.03985664-5.00553614 1.87655737-10.10656029 2.45087232-15.29338539 1.72017664-5.19236153-0.72792747-8.89842233-2.39690069-11.12233643-5.005535-4.2665381-5.21311915-8.43897059-8.6548571-12.51314688-10.32383147-4.07971271-1.56518173-8.43758706-2.34707968-13.06808774-2.34707968-4.2665381 0-7.88126265 0.83587072-10.84555834 2.50345927-2.96706389 2.08690859-4.44921173 4.74674745-4.44921059 7.97813532 0 8.76003328 10.93551104 17.83282688 32.81206841 27.21837853 28.36147314 11.88901205 42.54359325 24.87268238 42.54359324 38.95101099-0.18820893 8.9703845-5.65734855 16.47661283-16.4060342 22.5256027-10.75283741 6.04760633-25.02491022 9.07279246-42.82037248 9.07279246-11.4959872-0.10517618-21.68973198-1.93191253-30.58815431-5.47605846-10.00968761-3.54691413-18.72405277-10.37780309-26.13755904-20.49266574-2.2239141-3.33656291-3.43205091-6.62192128-3.61472455-9.85469155 0-2.39413248 2.2239141-4.73982862 6.67312469-7.03570489zM203.71878571 273.78798251c0.18267363-4.38001664 6.48768398-6.57071673 18.90810994-6.57071673 12.23498525 0 19.83393337 2.19070009 22.80099726 6.57071673l39.4851931 62.5726555v-62.5726555c0.18267363-4.38001664 6.48768398-6.57071673 18.90810994-6.57071673 12.60448427 0 18.90810994 2.19070009 18.90810994 6.57071673v116.38527772c-0.18682539 4.38001664-6.49045106 6.57071673-18.90810994 6.57071673-12.79130965 0-20.39440953-2.19070009-22.80099613-6.57071673l-39.4851931-62.25989632v62.25989632c-0.18682539 4.38001664-6.49045106 6.57071673-18.90811107 6.57071673-12.60725134 0-18.90810994-2.19070009-18.90810994-6.57071673v-116.38527772zM451.10877298 692.52173141H181.24992285c-12.99335737 0-23.52615651-10.53279801-23.52615538-23.52615651s10.53279801-23.52615651 23.52615538-23.52615538h269.85885013c12.99335737 0 23.52615651 10.53279801 23.52615537 23.52615538s-10.53279801 23.52615651-23.52615537 23.52615651z m0-143.92472007H181.24992285c-12.99335737 0-23.52615651-10.53279801-23.52615538-23.52615537s10.53279801-23.52615651 23.52615538-23.52615652h269.85885013c12.99335737 0 23.52615651 10.53279801 23.52615537 23.52615652s-10.53279801 23.52615651-23.52615537 23.52615537z m3.81123697-227.72350293c14.08524857 0.10517618 21.22336029 3.49432605 21.41018568 10.16745074-0.18682539 7.40658745-7.32493824 11.10711296-21.41018568 11.10711296h-42.2654316v30.50373802c0.55632441 0.83587072 1.20398507 1.40880213 1.94575132 1.72017664 2.2239141 0.73069454 4.54054798 1.09604181 6.95128747 1.09604182h52.83144363c12.97398329 0.10517618 19.46443435 3.65209031 19.46443434 10.63797418 0 7.09106005-6.49045106 10.63797419-19.46443434 10.63797419h-80.08165149c-12.97675037-0.10517618-19.46443435-3.49570958-19.46443435-10.16745074v-108.40714353c0-7.29864419 6.48768398-10.95073337 19.46443435-10.95073338h80.08165149c12.97398329 0.10517618 19.46443435 3.65209031 19.46443434 10.63797419 0 7.09382827-6.49045106 10.63797419-19.46443434 10.63797419h-52.83144363c-2.59756487 0-5.00553614 0.52311154-7.22944911 1.56379705-0.92997518 0.21035122-1.48629959 0.6255195-1.66897322 1.25103787v29.56545934h42.26681514z m86.58870955-47.86880854c2.2239141-1.77138119 5.6531968-2.86603947 10.28923279-3.28535836 4.81732608-0.41516715 8.89842233 0.15637959 12.23498524 1.72156018 3.33656291 1.66897323 5.37503517 4.59036786 6.11680142 8.76003442l8.89842233 66.95267214 8.34209792-26.12372025c2.40658773-5.52587947 7.87572622-8.29089451 16.40465067-8.29089451 8.52477155 0.10517618 13.71574955 2.86880768 15.57154702 8.29089451l7.50761188 25.65458034 12.23498524-66.95267215c0.55632441-4.06725746 2.87157475-6.93468046 6.95128633-8.60365368 4.26238635-1.56379705 8.71159694-2.03293696 13.34763406-1.40741746 4.63188537 0.6255195 7.8771109 1.87655737 9.73152597 3.75449828 1.48214784 1.67035677 1.94713486 4.38001664 1.39081046 8.13451377l-19.46305081 107.7802405c-0.55632441 2.50345927-1.94713486 4.53639623-4.1724325 6.10157795-2.78023851 1.66758969-6.49045106 2.50345927-11.12233643 2.50345928-5.19097685-0.21035122-8.71574869-1.1486299-10.56601202-2.81621846-2.41073949-1.87655737-4.2665381-4.43398827-5.56185941-7.665375l-17.51729948-35.66565262-17.24052025 36.13617493c-1.29809067 2.81621959-2.87572651 5.00553614-4.72737451 6.57071787-2.2239141 1.77138119-5.56186055 2.86742301-10.00968647 3.28535836-4.82147783 0.10240797-8.71436515-0.6255195-11.6772773-2.19070122-2.96844743-1.46138909-4.54469973-3.49432605-4.72737336-6.10019328l-14.73706098-107.93800477c-0.55770795-4.06864099 0.2767781-6.936064 2.50069219-8.60642077zM838.59840227 692.52173141H568.73955328c-12.99335737 0-23.52615651-10.53279801-23.52615651-23.52615651s10.53279801-23.52615651 23.52615651-23.52615538h269.85884899c12.99335737 0 23.52615651 10.53279801 23.52615652 23.52615538s-10.53279801 23.52615651-23.52615652 23.52615651z m0-143.92472007H568.73955328c-12.99335737 0-23.52615651-10.53279801-23.52615651-23.52615537s10.53279801-23.52615651 23.52615651-23.52615652h269.85884899c12.99335737 0 23.52615651 10.53279801 23.52615652 23.52615652s-10.53279801 23.52615651-23.52615652 23.52615537z" fill="#e6e6e6" p-id="3697"></path></svg>
