<?xml version="1.0" standalone="no"?><!DOCTYPE svg PUBLIC "-//W3C//DTD SVG 1.1//EN" "http://www.w3.org/Graphics/SVG/1.1/DTD/svg11.dtd"><svg t="1535877198260" class="icon" style="" viewBox="0 0 1024 1024" version="1.1" xmlns="http://www.w3.org/2000/svg" p-id="4425" xmlns:xlink="http://www.w3.org/1999/xlink" width="200" height="200"><defs><style type="text/css"></style></defs><path d="M292.112 591.552L526.16 335.36l-296.976-36.304zM545.568 340.912L304.64 604.64l687.088 351.392zM1008.672 964.704c0.944-1.216 1.84-2.48 2.64-3.808-1.152 1.424-2.24 2.544-3.296 3.472l0.656 0.336zM878.704 134.144a9.12 9.12 0 0 1-1.728 1.472L559.264 328.864l452.704 631.072c4.896-8.576 6.992-19.072 5.168-30.544L893.6 154.512c-1.728-10.848-6.656-21.376-13.648-30.544a8.976 8.976 0 0 1-1.248 10.176zM294.112 619.488L123.28 939.296a9.008 9.008 0 0 1-12.08 3.888c11.92 9.424 26.464 15.504 41.008 15.904l819.264 22.368a46.912 46.912 0 0 0 26.4-7.008L294.112 619.488zM110.768 942.88c-0.336-0.192-0.576-0.48-0.88-0.704l0.88 0.704zM998.848 973.888a41.6 41.6 0 0 0 9.088-8.128c-3.808 4.096-5.92 5.216-9.088 8.128zM107.232 930.976l170.64-319.424-258.24-94.224a8.96 8.96 0 0 1-5.584-10.352c-8.416 20.784-11.68 45.184-7.2 64.208l78.704 333.648c3.2 13.568 11.568 26 22.496 35.616a8.992 8.992 0 0 1-0.816-9.472z" p-id="4426"></path><path d="M25.824 500.336l247.616 90.352-63.232-293.952s-3.744-8.24 1.904-14.096c5.632-5.872 13.072-2.272 13.072-2.272l308.384 37.696-75.072-255.136a9.04 9.04 0 0 1 16.768-6.72l75.632 256.56L867.072 120.496a9.008 9.008 0 0 1 9.92 0.016c-11.872-13.92-28.464-24.192-45.696-26.384l-344.96-43.904c-29.584-3.76-70.336 11.088-90.544 33.008L31.184 478.56c-6.272 6.8-11.504 15.6-15.728 25.216a8.864 8.864 0 0 1 10.368-3.44z" p-id="4427"></path></svg>