<?xml version="1.0" standalone="no"?><!DOCTYPE svg PUBLIC "-//W3C//DTD SVG 1.1//EN" "http://www.w3.org/Graphics/SVG/1.1/DTD/svg11.dtd"><svg t="1535877825518" class="icon" style="" viewBox="0 0 1024 1024" version="1.1" xmlns="http://www.w3.org/2000/svg" p-id="5722" xmlns:xlink="http://www.w3.org/1999/xlink" width="200" height="200"><defs><style type="text/css"></style></defs><path d="M398.656 362.624c0 22.656-18.56 41.216-41.216 41.216h-216.32a41.344 41.344 0 0 1-41.216-41.216v-216.32c0-22.656 18.56-41.216 41.216-41.216h216.32c22.656 0 41.216 18.56 41.216 41.216v216.32zM398.656 877.696c0 22.656-18.56 41.216-41.216 41.216h-216.32a41.344 41.344 0 0 1-41.216-41.216v-216.32c0-22.656 18.56-41.216 41.216-41.216h216.32c22.656 0 41.216 18.56 41.216 41.216v216.32zM924.096 877.696c0 22.656-18.56 41.216-41.216 41.216h-216.32a41.344 41.344 0 0 1-41.216-41.216v-216.32c0-22.656 18.56-41.216 41.216-41.216h216.32c22.656 0 41.216 18.56 41.216 41.216v216.32zM841.664 187.52v133.952h-133.952V187.52h133.952m41.216-82.432h-216.32a41.344 41.344 0 0 0-41.216 41.216v216.32c0 22.656 18.56 41.216 41.216 41.216h216.32c22.656 0 41.216-18.56 41.216-41.216v-216.32a41.344 41.344 0 0 0-41.216-41.216z" fill="#e6e6e6" p-id="5723"></path><path d="M208.128 254.4H290.56v490.176H208.128zM733.504 337.728h82.432v406.976h-82.432zM293.12 728.32h406.976v82.432H293.12zM293.12 213.184h406.976v82.432H293.12z" fill="#e6e6e6" p-id="5724"></path></svg>
